<svg width="0" height="0" class="hidden">
  <symbol viewBox="0 0 0 0" id="icons">
    <symbol viewBox="0 0 0 0" id="icons"><svg width="0" height="0">
        <symbol xmlns="http://www.w3.org/2000/svg" fill="none" viewBox="0 0 20 20" id="linkedin">
          <g clip-path="url(#a)">
            <path d="M19.995 20H20v-7.336c0-3.588-.772-6.352-4.967-6.352-2.017 0-3.37 1.106-3.923 2.156h-.058V6.647H7.074v13.352h4.142v-6.611c0-1.741.33-3.425 2.486-3.425 2.124 0 2.156 1.987 2.156 3.536V20h4.137ZM.33 6.647h4.147V20H.33V6.647ZM2.402 0A2.402 2.402 0 0 0 0 2.402c0 1.325 1.076 2.424 2.402 2.424 1.325 0 2.401-1.098 2.401-2.424A2.403 2.403 0 0 0 2.402 0Z" fill="currentColor"></path>
          </g>
          <defs>
            <clipPath id="a">
              <path fill="#fff" d="M0 0h20v20H0z"></path>
            </clipPath>
          </defs>
        </symbol>

<symbol xmlns="http://www.w3.org/2000/svg" fill="none" viewBox="0 0 20 20" id="github">
<path fill-rule="evenodd" clip-rule="evenodd" d="M9.97 0C4.457 0 0 4.49 0 10.044c0 4.44 2.856 8.198 6.817 9.528 0.495 0.1 0.676 -0.216 0.676 -0.482 0 -0.233 -0.017 -1.031 -0.017 -1.863 -2.773 0.599 -3.351 -1.198 -3.351 -1.198 -0.446 -1.164 -1.106 -1.464 -1.106 -1.464 -0.908 -0.616 0.066 -0.616 0.066 -0.616 1.007 0.067 1.536 1.031 1.536 1.031 0.891 1.53 2.328 1.097 2.905 0.832 0.083 -0.648 0.346 -1.097 0.627 -1.347 -2.212 -0.233 -4.54 -1.097 -4.54 -4.955 0 -1.097 0.396 -1.996 1.024 -2.694 -0.099 -0.249 -0.446 -1.28 0.099 -2.661 0 0 0.842 -0.266 2.74 1.031a9.585 9.585 0 0 1 2.493 -0.333c0.842 0 1.7 0.117 2.493 0.333 1.899 -1.297 2.74 -1.031 2.74 -1.031 0.545 1.38 0.198 2.412 0.099 2.661 0.644 0.699 1.024 1.597 1.024 2.694 0 3.858 -2.328 4.706 -4.556 4.955 0.363 0.316 0.676 0.914 0.676 1.863 0 1.347 -0.017 2.428 -0.017 2.76 0 0.266 0.181 0.582 0.676 0.482 3.962 -1.331 6.817 -5.089 6.817 -9.529C19.94 4.49 15.467 0 9.97 0z" fill="currentColor"/>
</symbol>



      <svg>
        <use href="#linkedin"></use>
      </svg>
    </symbol>
  </symbol>
</svg>